<?xml version="1.0" standalone="no"?>
<!DOCTYPE svg PUBLIC "-//W3C//DTD SVG 20010904//EN"
 "http://www.w3.org/TR/2001/REC-SVG-20010904/DTD/svg10.dtd">
<svg version="1.0" xmlns="http://www.w3.org/2000/svg"
 width="800.000000pt" height="533.000000pt" viewBox="0 0 800.000000 533.000000"
 preserveAspectRatio="xMidYMid meet">

<g transform="translate(0.000000,533.000000) scale(0.100000,-0.100000)"
fill="#000000" stroke="none">
<path d="M700 5186 c0 -86 4 -147 10 -151 11 -7 821 -8 828 -1 2 3 1 70 -3
150 l-7 146 -414 0 -414 0 0 -144z"/>
<path d="M2370 5190 l0 -140 408 2 407 3 3 138 3 137 -411 0 -410 0 0 -140z"/>
<path d="M4230 4931 c-46 -10 -86 -32 -134 -76 -21 -19 -41 -35 -45 -35 -16 0
-84 -74 -97 -105 -35 -84 -58 -274 -48 -399 6 -79 8 -86 19 -65 12 21 14 17
20 -46 3 -39 11 -83 16 -100 13 -46 49 -276 48 -310 -2 -29 -2 -29 -8 5 -3 19
-9 31 -12 25 -3 -5 -1 -30 4 -55 8 -37 11 -42 18 -25 5 12 5 -5 2 -39 -5 -47
-3 -57 7 -51 8 5 11 4 7 -3 -9 -13 2 -44 13 -37 5 3 7 -12 4 -32 -3 -28 -2
-33 5 -18 8 18 9 18 15 3 13 -39 14 -46 6 -54 -11 -11 -1 -56 10 -49 4 2 12
-7 19 -22 8 -17 15 -23 22 -16 7 7 5 33 -7 79 -23 95 -27 139 -11 122 25 -26
67 -98 68 -115 0 -11 3 -13 6 -5 7 17 23 15 23 -3 0 -8 -4 -15 -10 -15 -5 0
-9 -3 -8 -7 1 -5 -10 -28 -26 -52 -26 -41 -27 -46 -15 -83 17 -53 27 -56 35
-11 11 58 32 101 58 118 17 11 22 23 20 43 -2 15 -1 19 2 9 3 -9 10 -15 15
-12 12 8 12 45 -1 45 -10 0 -8 106 3 117 7 6 11 -18 8 -49 -1 -10 2 -18 7 -18
19 0 33 28 27 53 -6 24 -5 25 67 29 48 4 82 1 100 -8 17 -7 30 -9 34 -3 3 5
-8 12 -25 15 -17 4 -28 10 -25 15 3 5 -3 9 -13 10 -11 0 -13 3 -5 6 10 4 10 8
1 19 -7 8 -9 29 -6 48 4 24 1 39 -9 47 -8 6 -14 16 -14 21 0 19 -37 47 -101
75 -74 34 -122 78 -173 157 -78 123 -99 196 -56 196 52 0 134 57 124 85 -13
33 -73 25 -137 -18 -24 -16 -28 -17 -33 -3 -11 28 4 45 43 52 47 8 73 21 73
36 0 14 -60 5 -100 -15 l-29 -15 -7 46 c-5 26 -8 73 -8 105 1 85 22 109 146
161 52 23 67 20 128 -24 30 -22 72 -52 93 -66 l39 -25 -50 -25 c-56 -28 -97
-67 -87 -84 4 -6 13 -9 19 -7 7 3 19 1 27 -4 11 -7 10 -9 -4 -9 -15 0 -16 -3
-7 -20 6 -11 8 -20 5 -20 -3 0 0 -6 7 -14 11 -12 15 -12 29 0 11 10 26 13 42
9 16 -4 39 1 66 14 49 26 72 18 91 -31 7 -18 21 -53 32 -78 41 -90 68 -171 68
-201 0 -35 -19 -76 -49 -103 -27 -24 -28 -50 -2 -41 11 3 22 2 25 -4 3 -5 16
-7 27 -4 26 7 46 -16 95 -111 l35 -69 -45 -111 c-24 -61 -52 -142 -61 -181
-16 -65 -50 -135 -67 -135 -12 0 -31 -43 -35 -80 -2 -19 -16 -60 -30 -90 -30
-64 -38 -183 -15 -238 7 -19 12 -57 10 -85 -3 -49 -4 -52 -33 -54 -16 -1 -52
-4 -80 -7 -27 -3 -130 -13 -227 -22 -148 -15 -178 -20 -178 -33 0 -14 -2 -14
-10 -1 -21 34 -22 -7 -2 -106 12 -59 24 -109 27 -113 3 -3 35 -4 70 -3 57 1
72 -3 142 -39 43 -23 99 -52 125 -65 49 -25 56 -36 58 -94 4 -76 0 -100 -22
-120 -13 -12 -17 -20 -9 -20 7 0 11 -6 8 -14 -4 -11 -1 -13 11 -9 14 6 14 5 3
-8 -10 -10 -30 -14 -64 -12 -28 2 -48 0 -44 -4 12 -11 -74 -47 -162 -68 -77
-19 -81 -21 -81 -47 0 -15 -4 -38 -10 -52 -5 -14 -5 -28 0 -31 4 -3 39 -1 77
4 37 6 124 15 192 21 111 10 125 10 142 -6 20 -18 19 -18 167 21 57 14 106 25
108 22 3 -3 10 -35 15 -72 13 -78 11 -80 -61 -89 -366 -46 -640 -75 -653 -70
-12 4 -17 22 -19 65 l-3 60 -68 23 c-52 17 -79 34 -110 67 -75 78 -104 99
-142 99 -22 0 -35 5 -35 13 0 18 24 67 33 67 4 0 7 10 7 23 0 29 34 67 60 67
32 0 51 27 40 56 -13 32 -12 35 2 32 7 -2 15 13 18 35 4 20 4 37 0 37 -15 0
68 175 101 214 31 37 35 48 41 126 7 98 63 276 121 385 27 51 34 72 26 81 -8
10 -7 18 5 29 35 35 10 60 -50 50 -19 -3 -50 -7 -69 -10 -36 -6 -49 -25 -17
-25 11 0 18 -7 18 -19 0 -15 -5 -17 -28 -10 -15 4 -32 10 -37 13 -14 9 -9 46
6 46 7 0 13 7 13 15 0 8 6 15 13 15 20 0 41 45 33 72 -3 13 -17 37 -31 53
l-26 30 3 -41 c2 -29 0 -40 -9 -37 -7 3 -10 -3 -6 -16 3 -12 1 -21 -6 -21 -6
0 -11 -6 -11 -13 0 -7 -9 -20 -20 -30 -11 -9 -20 -12 -20 -7 0 5 -7 7 -15 4
-18 -7 -20 18 -4 47 5 11 9 27 7 35 -2 11 -16 3 -50 -30 -49 -49 -78 -53 -74
-10 2 13 6 27 9 31 21 20 3 24 -38 9 -37 -14 -44 -15 -50 -7 -3 5 -13 7 -23 4
-18 -4 -18 -6 1 -48 13 -29 30 -47 47 -54 15 -5 32 -22 39 -40 8 -17 17 -28
22 -25 5 3 4 14 -2 25 -14 27 -6 34 22 19 12 -7 34 -16 48 -20 26 -7 27 -6 23
21 -5 37 13 38 32 2 8 -16 24 -35 36 -43 13 -8 28 -20 34 -25 6 -6 26 -22 44
-38 19 -15 28 -27 22 -27 -9 0 -9 -5 1 -17 11 -15 11 -16 -1 -5 -20 17 -40 15
-40 -5 0 -12 -7 -6 -21 16 -11 18 -23 30 -26 27 -4 -4 -1 -12 5 -18 22 -22 12
-26 -29 -12 -26 9 -45 11 -53 5 -6 -5 -31 -11 -56 -15 l-45 -5 37 17 c21 9 38
20 38 23 0 3 -11 16 -24 29 -28 26 -56 21 -56 -10 0 -25 -17 -27 -23 -2 -4 16
-5 16 -6 0 -2 -26 -14 -22 -33 10 l-17 27 -1 -26 c0 -14 -3 -28 -6 -32 -7 -7
-54 81 -54 101 0 34 -19 50 -52 43 -26 -5 -37 -15 -51 -46 -10 -22 -29 -56
-43 -75 -13 -19 -32 -61 -43 -92 -11 -31 -31 -74 -45 -95 -14 -21 -26 -41 -26
-45 0 -4 -20 -38 -44 -76 -24 -37 -54 -90 -66 -117 l-23 -50 -9 55 c-4 30 -11
494 -15 1030 l-8 975 -395 6 c-256 4 -400 2 -408 -4 -7 -6 -10 -17 -7 -26 6
-15 14 -478 31 -1866 3 -297 9 -556 13 -575 l7 -35 267 2 c227 2 267 0 267
-12 0 -8 -13 -43 -30 -77 -16 -35 -63 -144 -104 -243 -41 -99 -86 -206 -100
-236 -51 -112 -120 -304 -130 -361 l-7 -36 73 -17 c40 -9 93 -26 118 -38 44
-21 46 -24 37 -50 -5 -15 -13 -27 -18 -27 -5 0 -9 -8 -10 -17 0 -15 -2 -15 -9
2 -8 18 -9 18 -9 2 -1 -10 -5 -16 -10 -12 -11 6 -33 -29 -24 -38 3 -4 1 -13
-6 -21 -6 -7 -11 -27 -11 -42 0 -53 -6 -109 -13 -121 -8 -13 12 -65 22 -58 4
2 8 -8 9 -22 2 -32 33 -84 47 -80 5 2 10 22 11 45 0 23 4 45 7 49 14 14 6 43
-19 66 -21 20 -25 33 -26 83 -1 75 8 103 30 99 9 -2 23 -4 31 -4 11 -1 12 -16
7 -76 -4 -48 -3 -82 4 -95 11 -21 11 -21 30 2 23 29 37 17 22 -18 -7 -14 -8
-23 -2 -19 5 3 15 25 21 48 l12 42 9 -45 c9 -44 4 -499 -8 -792 l-6 -148 549
0 548 0 57 112 c32 62 98 181 148 263 94 156 155 274 184 360 9 28 20 55 24
61 4 7 77 21 162 33 85 12 200 31 255 41 55 11 135 27 179 35 64 12 97 26 185
79 148 89 146 81 106 431 -8 72 -21 194 -29 272 -14 132 -41 272 -65 335 -10
26 -8 28 17 33 15 3 68 17 117 31 50 13 98 26 107 29 9 2 22 -3 29 -11 26 -32
48 -5 68 86 17 73 13 129 -9 157 -25 33 -25 57 1 94 20 29 20 32 10 377 -18
595 -23 693 -47 869 -5 40 -19 52 -36 28 -4 -5 -8 -7 -10 -5 -2 3 -16 24 -31
47 l-27 42 -165 -2 c-164 -2 -165 -2 -188 23 -20 22 -31 25 -92 25 -55 0 -73
4 -91 20 -12 11 -34 28 -49 39 -37 25 -92 114 -106 172 -6 27 -15 53 -19 58
-5 4 -4 22 1 39 6 21 4 39 -7 62 -8 18 -14 36 -12 41 1 5 -8 32 -21 59 -32 70
-52 127 -42 121 4 -3 34 -65 66 -138 32 -73 61 -137 65 -143 4 -5 13 -26 19
-46 12 -37 50 -90 52 -73 1 5 4 -2 8 -15 16 -58 100 -79 86 -22 -3 14 -11 31
-18 36 -12 10 -53 78 -49 82 0 2 -6 19 -14 39 -22 54 -11 51 16 -4 24 -47 50
-81 50 -64 0 5 -3 12 -6 15 -4 4 -8 19 -10 34 -6 57 -33 164 -45 178 -5 5 -9
17 -9 27 0 9 -12 43 -26 75 -14 32 -27 72 -29 89 -7 50 -102 206 -162 267
-108 109 -252 162 -373 138z m309 -406 c0 -5 -6 1 -14 15 -8 14 -14 30 -14 35
0 6 6 -1 14 -15 8 -14 14 -29 14 -35z m-73 21 c19 -14 19 -15 -1 -21 -11 -3
-43 -15 -70 -26 -28 -10 -55 -19 -60 -19 -20 0 79 78 101 79 5 1 19 -5 30 -13z
m288 -2 c3 -8 2 -12 -4 -9 -6 3 -10 10 -10 16 0 14 7 11 14 -7z m-64 -38 c0
-12 -5 -7 -19 24 -11 24 -11 24 3 6 9 -11 16 -24 16 -30z m-80 -129 c0 -7 5
-18 11 -24 6 -6 9 -17 7 -25 -3 -7 -14 5 -26 28 -20 40 -62 144 -62 154 0 11
70 -121 70 -133z m170 -62 c0 -5 -5 -3 -10 5 -5 8 -10 20 -10 25 0 6 5 3 10
-5 5 -8 10 -19 10 -25z m29 -74 c0 -14 -1 -14 -6 -1 -3 8 -10 24 -15 35 -9 20
-9 20 6 1 9 -11 16 -27 15 -35z m-151 4 c-3 -3 -9 2 -12 12 -6 14 -5 15 5 6 7
-7 10 -15 7 -18z m21 -60 l0 -20 -9 20 c-5 11 -9 27 -9 35 -1 13 0 13 9 0 5
-8 9 -24 9 -35z m-609 -545 c7 -17 10 -33 6 -37 -3 -3 -6 -1 -6 6 0 7 -7 19
-15 27 -17 17 -20 34 -6 34 5 0 14 -14 21 -30z m123 -95 c-3 -9 -8 -14 -10
-11 -3 3 -2 9 2 15 9 16 15 13 8 -4z m-463 -169 c0 -2 -7 -7 -16 -10 -8 -3
-12 -2 -9 4 6 10 25 14 25 6z m211 -49 c-10 -9 -11 -8 -5 6 3 10 9 15 12 12 3
-3 0 -11 -7 -18z m-224 -219 c-3 -7 -5 -2 -5 12 0 14 2 19 5 13 2 -7 2 -19 0
-25z m853 -445 c0 -5 -7 -17 -15 -27 -13 -17 -13 -22 2 -38 19 -22 10 -36 -12
-18 -10 8 -15 9 -15 1 0 -6 -4 -11 -10 -11 -5 0 -10 20 -10 45 0 25 5 45 10
45 6 0 10 -6 10 -12 0 -7 5 -5 11 5 10 17 29 24 29 10z m77 -10 c3 -8 -6 -11
-24 -10 -22 2 -28 -2 -28 -18 0 -17 6 -20 34 -17 29 2 32 0 21 -13 -15 -18
-51 -20 -68 -3 -16 16 -15 51 0 66 15 15 60 12 65 -5z m-1103 -29 c3 -9 6 -27
6 -41 0 -21 -2 -22 -14 -10 -8 7 -13 26 -13 40 2 30 12 35 21 11z m1116 -88
c0 -2 -17 -3 -37 -3 -32 -1 -34 0 -13 6 21 7 50 4 50 -3z m-105 -6 c4 -6 -10
-9 -37 -9 l-43 2 35 7 c19 4 36 8 37 9 1 0 5 -3 8 -9z m96 -50 c5 0 9 -5 9
-10 0 -6 -10 -8 -24 -4 -13 3 -27 1 -30 -5 -4 -6 -12 -11 -18 -11 -6 0 -3 9 7
20 10 12 25 18 33 15 7 -3 18 -5 23 -5z m-83 -25 c3 -17 1 -18 -8 -5 -9 11
-13 12 -17 3 -8 -20 -23 -15 -23 8 0 28 43 23 48 -6z m-98 -5 c0 -11 -4 -20
-10 -20 -5 0 -10 9 -10 20 0 11 5 20 10 20 6 0 10 -9 10 -20z m30 5 c-7 -9
-15 -13 -17 -11 -7 7 7 26 19 26 6 0 6 -6 -2 -15z m-1104 -210 c8 -32 2 -57
-16 -63 -13 -5 -13 -3 -2 11 8 9 12 22 9 29 -4 9 -6 8 -6 -3 -1 -9 -8 -16 -17
-16 -11 0 -14 9 -13 31 2 17 4 34 6 38 7 14 33 -5 39 -27z m1032 -140 c-3 -3
-9 2 -12 12 -6 14 -5 15 5 6 7 -7 10 -15 7 -18z m32 -34 c6 -13 6 -22 1 -26
-9 -5 -31 24 -31 39 0 14 20 4 30 -13z m23 4 c-3 -9 -8 -14 -10 -11 -3 3 -2 9
2 15 9 16 15 13 8 -4z m-216 -27 c-3 -8 -6 -5 -6 6 -1 11 2 17 5 13 3 -3 4
-12 1 -19z m47 10 c-3 -4 -12 -8 -20 -8 -8 0 -13 4 -10 8 3 5 12 9 20 9 8 0
13 -4 10 -9z m186 -29 c0 -18 -2 -19 -15 -5 -8 8 -15 17 -15 20 0 3 7 6 15 6
9 0 15 -9 15 -21z m-1351 -119 c-1 -10 -2 -11 -6 -2 -2 6 -10 9 -16 5 -7 -4
-8 0 -4 11 4 10 7 23 8 29 1 17 18 -25 18 -43z m1457 -255 c10 -8 15 -15 9
-15 -5 -1 -18 -3 -28 -5 -15 -3 -16 -1 -6 11 10 12 9 13 -5 8 -9 -3 -16 -11
-16 -17 0 -6 -3 -7 -6 -4 -7 7 14 37 25 37 4 0 16 -7 27 -15z"/>
<path d="M715 4750 c-4 -6 -5 -46 -1 -88 7 -98 18 -388 31 -882 4 -113 12
-385 20 -605 8 -220 17 -515 21 -655 4 -140 11 -265 15 -277 l8 -23 392 1
c340 1 391 4 396 17 7 16 -8 695 -32 1552 -8 278 -15 605 -15 727 0 122 -4
224 -9 227 -5 3 -191 9 -413 12 -318 5 -407 4 -413 -6z"/>
<path d="M4383 4275 c7 -13 14 -20 15 -14 5 14 -6 39 -17 39 -5 0 -4 -11 2
-25z"/>
<path d="M4326 4234 c-5 -13 -2 -15 16 -10 13 3 29 6 36 6 7 0 10 5 7 10 -10
16 -52 12 -59 -6z"/>
<path d="M4305 4200 c-3 -5 -2 -10 4 -10 5 0 13 5 16 10 3 6 2 10 -4 10 -5 0
-13 -4 -16 -10z"/>
<path d="M4258 4188 c9 -9 15 -9 24 0 9 9 7 12 -12 12 -19 0 -21 -3 -12 -12z"/>
<path d="M4453 4175 c-18 -6 -35 -14 -39 -18 -4 -4 -18 -7 -31 -7 -13 0 -23
-6 -23 -14 0 -16 -27 -29 -42 -19 -7 3 -8 1 -4 -5 4 -8 0 -12 -11 -12 -11 0
-28 -7 -39 -15 -18 -14 -18 -14 8 -15 15 0 30 5 33 10 3 6 16 10 28 10 12 0
39 9 60 20 42 23 47 17 15 -17 -12 -13 -19 -25 -17 -28 3 -2 29 20 59 50 57
58 58 79 3 60z"/>
<path d="M4711 4114 c0 -11 3 -14 6 -6 3 7 2 16 -1 19 -3 4 -6 -2 -5 -13z"/>
<path d="M4847 3962 c12 -31 54 -76 62 -65 3 6 12 12 20 14 11 4 11 8 -3 21
-9 9 -16 21 -16 27 0 6 -9 11 -19 11 -11 0 -27 3 -35 6 -13 5 -15 2 -9 -14z"/>
<path d="M3754 3700 c-30 -12 -68 -61 -99 -127 -15 -32 -39 -73 -52 -91 -26
-34 -56 -129 -47 -144 12 -19 34 -7 34 20 0 39 11 73 21 66 5 -3 9 -1 9 4 0
16 95 107 165 158 60 44 65 51 65 86 0 37 -1 38 -37 37 -21 0 -47 -4 -59 -9z"/>
<path d="M4527 3648 c-2 -7 1 -23 6 -36 10 -21 11 -21 28 -6 21 19 16 36 -8
27 -12 -5 -15 -2 -10 10 3 9 2 17 -2 17 -5 0 -11 -6 -14 -12z"/>
<path d="M4595 3619 c-4 -6 -4 -13 -1 -16 8 -8 36 5 36 17 0 13 -27 13 -35 -1z"/>
<path d="M3753 3533 c-75 -61 -105 -97 -55 -68 36 22 149 125 136 125 -5 0
-42 -26 -81 -57z"/>
<path d="M4280 3564 c0 -8 5 -12 10 -9 6 4 8 11 5 16 -9 14 -15 11 -15 -7z"/>
<path d="M3915 3519 c-4 -6 -5 -12 -2 -15 2 -3 7 2 10 11 7 17 1 20 -8 4z"/>
<path d="M3926 3479 c-3 -18 -6 -39 -6 -48 1 -26 30 18 30 45 0 36 -17 37 -24
3z"/>
<path d="M4550 3494 c0 -9 5 -14 12 -12 18 6 21 28 4 28 -9 0 -16 -7 -16 -16z"/>
<path d="M4058 3378 c7 -7 12 -21 12 -32 0 -10 3 -17 6 -14 3 4 19 2 35 -2 27
-8 28 -7 18 11 -6 12 -17 18 -25 15 -8 -3 -20 3 -26 14 -7 11 -17 20 -22 20
-6 0 -5 -5 2 -12z"/>
<path d="M3865 3230 c3 -5 11 -10 16 -10 6 0 7 5 4 10 -3 6 -11 10 -16 10 -6
0 -7 -4 -4 -10z"/>
<path d="M3830 3210 c0 -9 31 -30 44 -30 16 0 3 18 -19 28 -14 7 -25 8 -25 2z"/>
<path d="M3892 3168 c5 -15 28 -23 28 -10 0 5 -7 13 -16 16 -10 4 -14 1 -12
-6z"/>
<path d="M4425 3170 c-3 -5 -4 -14 0 -20 8 -13 35 -1 35 16 0 16 -26 19 -35 4z"/>
<path d="M2000 3030 c-3 -56 0 -122 8 -134 3 -5 11 -1 18 8 7 10 17 15 23 12
14 -9 24 31 17 69 -4 21 -12 32 -19 30 -18 -7 -34 7 -40 35 -3 17 -5 10 -7
-20z"/>
<path d="M2010 2720 c0 -29 3 -50 7 -46 7 7 5 87 -3 95 -2 2 -4 -20 -4 -49z"/>
<path d="M3975 2424 c-26 -12 -27 -14 -5 -9 14 2 31 5 38 5 6 0 12 5 12 10 0
13 -9 12 -45 -6z"/>
<path d="M4050 2430 c-22 -6 -23 -8 -7 -15 11 -4 23 -3 30 4 15 15 7 19 -23
11z"/>
<path d="M3990 2151 c0 -6 4 -13 10 -16 6 -3 7 1 4 9 -7 18 -14 21 -14 7z"/>
<path d="M3967 2073 c-14 -13 -6 -33 13 -33 13 0 20 7 20 20 0 19 -20 27 -33
13z"/>
<path d="M4033 2043 c-18 -7 -16 -23 2 -23 7 0 19 -8 24 -17 9 -16 10 -16 11
-1 0 21 -10 48 -19 47 -3 0 -12 -3 -18 -6z"/>
<path d="M5460 1371 c0 -5 5 -13 10 -16 6 -3 10 -2 10 4 0 5 -4 13 -10 16 -5
3 -10 2 -10 -4z"/>
<path d="M2701 1074 c0 -11 3 -14 6 -6 3 7 2 16 -1 19 -3 4 -6 -2 -5 -13z"/>
<path d="M2230 746 c0 -22 15 -27 46 -15 23 8 25 12 14 19 -23 15 -60 12 -60
-4z"/>
<path d="M630 730 c0 -5 5 -10 11 -10 5 0 7 5 4 10 -3 6 -8 10 -11 10 -2 0 -4
-4 -4 -10z"/>
<path d="M1888 691 c-69 -10 -82 -28 -26 -36 66 -10 92 -4 96 23 2 14 -2 21
-10 21 -7 -1 -34 -5 -60 -8z"/>
<path d="M2165 693 c-22 -3 -46 -10 -54 -16 -11 -10 -9 -13 10 -18 52 -15 139
-8 139 10 0 7 -48 33 -53 29 -1 -1 -20 -3 -42 -5z"/>
<path d="M572 660 c-13 -22 -15 -22 -293 -15 l-279 7 0 -192 0 -192 88 7 c97
8 117 14 51 16 -24 1 -57 4 -74 8 -27 6 -25 8 29 19 33 7 79 12 103 12 24 0
63 9 86 19 23 11 65 22 92 26 83 11 105 16 105 26 0 5 -7 9 -15 9 -8 0 -15 4
-15 9 0 5 -30 13 -66 16 -43 5 -61 11 -53 16 10 6 11 9 2 9 -26 0 -12 20 15
20 15 0 34 5 42 10 12 7 8 11 -17 16 -55 11 -37 24 37 26 80 2 87 2 241 13
189 13 221 15 304 19 44 2 86 4 93 5 19 2 14 21 -6 21 -10 0 -23 5 -30 12 -14
14 -140 14 -154 0 -6 -6 -19 -5 -36 4 -15 8 -50 14 -78 14 -55 0 -69 7 -54 25
8 10 1 14 -27 20 -21 3 -47 8 -58 11 -13 3 -25 -3 -33 -16z"/>
<path d="M1360 652 c0 -5 14 -7 30 -4 17 2 30 6 30 8 0 2 -13 4 -30 4 -16 0
-30 -4 -30 -8z"/>
<path d="M865 640 c3 -5 8 -10 11 -10 2 0 4 5 4 10 0 6 -5 10 -11 10 -5 0 -7
-4 -4 -10z"/>
<path d="M1407 596 c-3 -8 1 -17 9 -20 23 -9 24 -8 24 14 0 23 -25 27 -33 6z"/>
<path d="M2258 583 c12 -2 30 -2 40 0 9 3 -1 5 -23 4 -22 0 -30 -2 -17 -4z"/>
<path d="M2328 583 c7 -3 16 -2 19 1 4 3 -2 6 -13 5 -11 0 -14 -3 -6 -6z"/>
<path d="M1643 573 c9 -2 23 -2 30 0 6 3 -1 5 -18 5 -16 0 -22 -2 -12 -5z"/>
<path d="M573 447 c-18 -7 -38 -18 -45 -25 -10 -10 -8 -14 10 -18 12 -4 22
-14 22 -23 0 -13 2 -13 9 -2 5 8 31 14 68 16 96 3 118 31 39 49 -62 14 -72 15
-103 3z"/>
<path d="M1440 395 c0 -9 6 -12 15 -9 8 4 12 10 9 15 -8 14 -24 10 -24 -6z"/>
<path d="M2015 400 c3 -5 15 -10 26 -10 10 0 19 5 19 10 0 6 -12 10 -26 10
-14 0 -23 -4 -19 -10z"/>
<path d="M680 210 c0 -16 77 -16 95 1 5 5 -11 9 -43 9 -29 0 -52 -4 -52 -10z"/>
<path d="M0 181 c0 -23 2 -24 56 -18 64 7 98 26 48 28 -28 1 -28 1 -4 8 17 5
4 7 -37 7 -59 -1 -63 -2 -63 -25z"/>
<path d="M0 80 c0 -11 60 -11 105 0 23 6 15 8 -37 9 -40 1 -68 -3 -68 -9z"/>
<path d="M613 79 c33 -5 67 -4 80 1 16 6 -1 9 -58 8 l-80 0 58 -9z"/>
<path d="M720 79 c0 -5 5 -7 10 -4 6 3 10 8 10 11 0 2 -4 4 -10 4 -5 0 -10 -5
-10 -11z"/>
</g>
</svg>
